PathFileType	4	(X/Y/Z)	C:/Users/beibeiliu/ov580/test_trc/User2\sequence.21_training_dense_left.trc
DataRate	CameraRate	NumFrames	NumMarkers	Units	OrigDataRate	OrigDataStartFrame	OrigNumFrames
120	120	14	19	mm	120	41	322
Frame#	Time	ThumbCMC			ThumbMCP			ThumbIP			ThumbTip			IndexMCP			IndexPIP			IndexTip			MiddleMCP			MiddlePIP			MiddleTip			RingMCP			RingPIP			RingTip			PinkyMCP			PinkyPIP			PinkyTip			BackHand1			BackHand2			BackHand3	
		X0	Y0	Z0	X1	Y1	Z1	X2	Y2	Z2	X3	Y3	Z3	X4	Y4	Z4	X5	Y5	Z5	X6	Y6	Z6	X7	Y7	Z7	X8	Y8	Z8	X9	Y9	Z9	X10	Y10	Z10	X11	Y11	Z11	X12	Y12	Z12	X13	Y13	Z13	X14	Y14	Z14	X15	Y15	Z15	X16	Y16	Z16	X17	Y17	Z17	X18	Y18	Z18	
40	0.333333	-221.255	21.7684	49.3211	-192.345	31.3938	28.0284	-168.289	38.2386	2.59595	-147.158	36.9966	-14.8509	-204.147	-15.0655	-22.3823	-181.852	-1.91857	-35.948	-154.484	11.0478	-35.3142	-190.257	-31.7687	-18.743	-163.155	-9.21993	-19.1507	-172.048	10.2584	14.9883	-174.696	-42.6355	-8.07905	-153.767	-18.6791	-8.30327	-169.755	-4.50688	24.9025	-168.723	-54.4676	9.32092	-144.864	-31.1822	3.04177	-157.271	-9.69239	25.8209	-211.346	-54.6575	43.5992	-222.063	-47.2363	77.3149	-239.514	-24.4995	51.3068	
41	0.341667	-218.909	23.5124	51.7864	-189.129	31.7955	33.3415	-162.791	37.4736	2.2323	-144.656	31.4611	-13.9524	-208.073	-9.95825	-20.2025	-184.126	-1.41955	-35.137	-154.549	9.68505	-34.3687	-191.537	-29.686	-19.6669	-163.185	-8.03535	-18.6663	-168.697	4.99486	19.9001	-177.488	-43.4381	-8.42074	-156.45	-19.2167	-9.14242	-169.014	-5.49757	22.9673	-168.71	-57.5269	7.46772	-147.29	-32.0641	1.92267	-156.184	-13.2385	30.4183	-215.295	-50.6942	44.1228	-224.38	-43.2342	76.2663	-240.047	-18.1301	53.1232	
42	0.35	-209.362	23.9486	53.9658	-180.684	34.5733	33.3323	-156.709	29.8441	5.40475	-139.493	25.9806	-10.3919	-209.813	-0.565953	-19.8365	-179.713	4.65414	-34.4938	-148.54	12.7199	-34.9149	-194.853	-23.4769	-20.8874	-163.045	-9.7113	-17.0602	-170.53	6.46123	21.1896	-184.234	-40.7627	-10.1689	-156.151	-24.3112	-7.0789	-167.959	-9.85022	23.8972	-177.678	-57.4297	4.29388	-152.597	-35.7025	-1.37547	-156.917	-17.4287	25.8611	-221.755	-45.0025	45.2805	-226.689	-40.4618	77.4868	-238.34	-11.3061	55.1449	
43	0.358333	-197.428	28.9298	61.7931	-169.763	27.9497	38.1304	-147.82	27.8836	12.3652	-131.623	19.3417	-12.2052	-204.89	9.3216	-15.6506	-181.146	14.1942	-31.4841	-150.786	10.5243	-34.5813	-203.196	-13.1864	-17.4484	-165.733	-4.70041	-17.4823	-167.149	0.554657	20.7437	-193.448	-30.5989	-15.3043	-165.064	-24.5714	-12.9124	-169.733	-16.0613	24.9135	-193.014	-47.9674	-2.88044	-162.529	-38.0175	-5.09754	-159.436	-24.0896	23.0079	-230.228	-31.9671	41.426	-232.408	-35.1037	77.4019	-235.343	3.84175	60.0712	
44	0.366667	-182.742	24.6619	72.0759	-153.496	22.8152	44.4238	-135.032	20.3255	11.3582	-129.375	8.56859	-9.34238	-197.454	30.9423	-5.86692	-175.326	24.5852	-24.4929	-146.222	9.59347	-32.2819	-206.268	9.9046	-12.4635	-172.692	-1.70825	-19.386	-165.922	-0.866572	22.1145	-203.835	-14.8795	-15.6866	-175.486	-19.6278	-15.536	-175.38	-17.2194	23.6431	-210.905	-32.812	-1.38133	-175.349	-34.4682	-7.04759	-169.96	-25.527	24.7745	-234.754	-12.8606	46.6891	-235.311	-14.8162	79.5405	-226.328	21.6129	65.6288	
45	0.375	-169.108	22.1114	74.8046	-145.196	14.7458	45.0014	-131.287	8.55406	17.1626	-124.351	1.71843	-5.95014	-184.226	42.3153	0.703885	-162.898	31.2716	-19.5038	-143.09	11.6256	-30.7949	-199.89	24.7999	-10.2387	-172.292	1.87143	-15.5254	-165.836	-3.61892	21.5365	-207.098	6.13027	-10.9063	-181.825	-9.68747	-16.1258	-180.19	-13.0506	24.0865	-217.231	-15.5799	-5.1307	-187.687	-27.7209	-10.6915	-176.185	-27.4784	18.8276	-235.384	1.14871	50.9239	-234.424	-2.18535	85.7671	-213.626	28.8342	74.8687	
46	0.383333	-162.568	21.9697	75.1507	-138.759	11.63	48.2291	-127.648	6.02335	17.3189	-127.908	-2.12934	-10.1595	-176.621	46.4712	5.4467	-160.702	34.038	-15.778	-144.75	10.1847	-30.6264	-194.423	33.6052	-6.71642	-168.21	7.13479	-14.3567	-165.734	-4.04569	21.9197	-209.977	10.7799	-9.06318	-181.939	-4.09554	-15.3681	-180.975	-13.0466	20.9838	-219.445	-5.4795	-4.3141	-193.208	-17.3496	-12.8219	-182.472	-24.1764	17.0068	-230.197	13.7945	53.0177	-231.616	2.01065	87.2385	-205.472	33.0679	78.0225	
47	0.391667	-158.854	20.0302	77.4942	-142.021	8.92308	47.5762	-123.729	6.14305	14.4682	-122.016	-1.7007	-9.86961	-172.486	47.1036	4.36253	-156.856	35.9233	-13.0883	-140.397	13.983	-29.9603	-194.595	35.6429	-2.64122	-170.878	8.55371	-15.1989	-163.803	-2.60673	23.4202	-205.879	15.2821	-10.3106	-182.484	-0.910779	-14.3372	-180.902	-9.96113	22.8353	-219.161	0.227468	0.589196	-192.609	-16.1519	-10.3039	-184.461	-21.2696	21.2877	-228.055	13.934	56.5936	-229.457	8.55306	86.5356	-203.28	35.5966	80.1503	
48	0.4	-159.399	18.7319	80.5298	-141.319	7.96723	48.9383	-123.466	5.14339	15.2531	-127.51	-2.42086	-10.7639	-172.226	49.2486	6.87598	-157.624	34.8817	-14.7434	-142.584	13.9418	-29.7582	-194.134	36.1728	-2.12426	-167.066	11.9148	-12.7213	-162.4	0.175495	25.7771	-204.712	20.5837	-4.63024	-183.91	-3.13315	-12.8746	-180.55	-3.47819	25.393	-219.094	1.40341	-2.72781	-190.288	-14.0843	-7.74298	-184.463	-19.6825	20.4426	-229.618	16.8239	57.3008	-229.47	8.70141	85.4809	-204.945	33.6045	81.2302	
49	0.408333	-155.631	19.6239	76.7585	-141.43	7.60564	48.2626	-127.093	3.2058	15.5132	-126.008	-2.54413	-12.2788	-169.798	49.0159	5.82225	-153.577	34.5001	-14.8883	-140.698	15.0652	-28.8107	-191.342	39.2851	-2.85516	-169.991	12.1167	-12.7758	-167.877	-2.73929	27.2133	-205.647	21.7967	-6.98178	-182.306	0.230739	-11.2772	-182.188	-7.05277	24.1836	-219.099	6.82832	4.37216	-192.473	-9.47743	-7.79231	-185.933	-21.0306	24.2827	-228.436	22.7031	55.972	-226.153	10.9845	88.2109	-201.12	36.4012	81.0806	
50	0.416667	-156.662	15.376	80.3766	-140.115	6.05485	46.1759	-128.517	0.191949	14.9891	-124.617	-4.8741	-12.8998	-168.863	50.6432	11.1132	-157.112	33.6285	-15.7589	-142.277	15.9974	-29.1348	-191.71	38.9477	-1.72718	-170.887	11.4672	-13.1224	-168.319	-3.94607	23.0884	-206.023	24.178	-4.69093	-185.089	-1.51785	-11.4804	-184.067	-5.33309	26.0322	-219.009	6.14279	-0.764692	-195.626	-13.2215	-9.18331	-186.23	-18.1346	21.8689	-228	22.596	58.248	-230.164	11.6058	87.4934	-201.104	36.4621	81.1552	
51	0.425	-156.695	12.0272	79.0624	-138.169	1.78142	46.3812	-130.664	-3.09736	13.2838	-129.661	-6.50385	-17.515	-170.007	48.7664	8.04086	-156.593	33.7863	-15.0719	-145.045	11.5349	-32.8439	-191.655	39.6091	-1.31023	-171.051	14.9187	-15.2178	-169.935	-4.00528	26.5789	-204.558	25.7289	-5.43305	-184.587	1.69529	-12.0839	-185.762	-7.65357	21.6701	-223.754	6.47775	0.321179	-195.206	-12.5702	-7.13608	-190.732	-14.8486	23.3136	-226.516	24.2978	56.7596	-230.95	9.31264	87.1832	-198.669	37.2414	81.3204	
52	0.433333	-162.178	11.1357	74.8616	-144.789	-0.0642864	45.9582	-131.181	-1.79144	6.26761	-134.448	-7.52178	-18.5602	-173.386	47.3057	7.70985	-160.462	32.9351	-15.8607	-149.49	9.7366	-33.9324	-193.993	37.8552	-6.16068	-173.773	12.862	-16.3865	-168.248	-3.39997	21.9097	-211.313	22.8208	-5.38096	-188.77	1.58634	-13.7157	-188.779	-7.49267	22.3102	-225.056	6.62867	-1.05319	-198.545	-13.1096	-7.04961	-195.372	-19.643	26.574	-227.294	23.8647	54.9582	-233.729	8.94228	89.2636	-199.239	36.6882	78.9007	
53	0.441667	-162.314	10.3903	76.277	-145.558	2.85761	40.2685	-134.175	-1.72623	5.92701	-137.408	-7.86036	-17.2094	-176.505	46.8045	6.96308	-161.863	31.9085	-17.4758	-150.743	13.0251	-33.0333	-193.936	38.3121	-5.93745	-175.951	8.52196	-16.0182	-173.204	-6.07575	20.9411	-209.336	23.4957	-7.41255	-193.289	-0.308077	-15.5481	-187.623	-8.36065	18.6753	-225.852	6.83058	-0.500542	-199.969	-12.6632	-8.21957	-195.597	-19.6334	22.9013	-234.554	20.285	57.683	-234.573	9.01306	87.1968	-201.654	36.1742	77.892	
